<svg width="384" height="384" viewBox="0 0 384 384" xml:space="preserve" xmlns="http://www.w3.org/2000/svg" xmlns:cc="http://creativecommons.org/ns#" xmlns:dc="http://purl.org/dc/elements/1.1/" xmlns:osb="http://www.openswatchbook.org/uri/2009/osb" xmlns:rdf="http://www.w3.org/1999/02/22-rdf-syntax-ns#">
    <metadata><rdf:RDF><cc:Work rdf:about=""><dc:format>image/svg+xml</dc:format><dc:type rdf:resource="http://purl.org/dc/dcmitype/StillImage"/><dc:title/></cc:Work></rdf:RDF></metadata>
    <defs><clipPath id="clipPath3748"><path d="m0 0h288v288h-288z"/></clipPath><clipPath id="clipPath3776"><path d="m0 288h288v-288h-288z"/></clipPath></defs><g transform="matrix(1.3333333,0,0,-1.3333333,0,384)">
    <g transform="matrix(.99631151 0 0 1 311.03044 73.669226)">
    <g transform="matrix(.5963628 0 0 .58768656 42.004355 67.701494)" opacity="0"><g clip-path="url(#clipPath3748)"><g/></g></g></g><g transform="matrix(1.7798022,0,0,1.7925731,-77.398195,-125.86264)" clip-path="url(#clipPath3776)"><g transform="translate(135.2822,48.5273)"><path transform="matrix(.75000002 0 0 -.75000002 -135.2822 239.47271)" d="m174.22656 314.30273-0.21484 0.94727c0.13523-0.14885 0.29421-0.29782 0.44922-0.44727zm7.79688 6.32813c-7e-3 3e-3 -0.0222 9e-3 -0.0293 0.0117 0.0141 0.0185 0.0313 0.036 0.0449 0.0547z" fill="#a3bebf"/></g><g transform="translate(101.4209,38.2803)"><path d="m0 0c0.132-0.149 0.262-0.261 0.39-0.335s0.256-0.111 0.382-0.111c0.12 0 0.216 0.032 0.292 0.095 0.077 0.064 0.115 0.145 0.115 0.243 0 0.107-0.033 0.191-0.099 0.25-0.065 0.058-0.215 0.118-0.447 0.179-0.319 0.086-0.543 0.199-0.675 0.336-0.132 0.138-0.197 0.326-0.197 0.567 0 0.31 0.103 0.564 0.311 0.759 0.208 0.197 0.478 0.295 0.81 0.295 0.179 0 0.348-0.025 0.509-0.072 0.161-0.049 0.313-0.121 0.457-0.219l-0.279-0.637c-0.1 0.086-0.203 0.151-0.309 0.194s-0.21 0.065-0.314 0.065c-0.106 0-0.193-0.025-0.259-0.077-0.067-0.051-0.101-0.115-0.101-0.195 0-0.082 0.029-0.147 0.088-0.195 0.058-0.049 0.172-0.096 0.339-0.141l0.04-0.011c0.36-0.097 0.598-0.205 0.712-0.321 0.077-0.08 0.135-0.176 0.175-0.288s0.06-0.235 0.06-0.372c0-0.345-0.113-0.621-0.339-0.831s-0.528-0.314-0.906-0.314c-0.227 0-0.433 0.038-0.618 0.115-0.186 0.077-0.365 0.198-0.536 0.362z" fill="#a3bebf"/></g><g transform="translate(106.1924,37.2305)"><path d="m0 0v3.25h0.886v-2.49h1.1v-0.76z" fill="#a3bebf"/></g><g transform="translate(112.4043,37.8945)"><path d="m0 0c0.246 0 0.449 0.09 0.609 0.271 0.162 0.18 0.242 0.408 0.242 0.683 0 0.273-0.081 0.499-0.245 0.682-0.163 0.182-0.365 0.272-0.606 0.272-0.245 0-0.448-0.09-0.608-0.271-0.162-0.182-0.242-0.408-0.242-0.683 0-0.278 0.079-0.507 0.238-0.686 0.158-0.178 0.362-0.268 0.612-0.268m1.736 0.954c0-0.233-0.043-0.452-0.129-0.657-0.086-0.204-0.211-0.387-0.375-0.548-0.166-0.16-0.355-0.283-0.568-0.37-0.213-0.086-0.435-0.129-0.664-0.129-0.231 0-0.454 0.043-0.667 0.129-0.212 0.087-0.398 0.21-0.561 0.37-0.167 0.161-0.293 0.345-0.379 0.55-0.087 0.206-0.13 0.424-0.13 0.655 0 0.233 0.043 0.451 0.13 0.655 0.086 0.205 0.212 0.389 0.379 0.551 0.163 0.159 0.349 0.282 0.561 0.369 0.213 0.086 0.436 0.129 0.667 0.129s0.454-0.043 0.667-0.129c0.214-0.087 0.402-0.21 0.565-0.369 0.164-0.16 0.288-0.344 0.374-0.549 0.087-0.206 0.13-0.424 0.13-0.657" fill="#a3bebf"/></g><g transform="translate(118.5146,38.4268)"><path d="m0 0v0.682h1.74c1e-3 -0.023 2e-3 -0.046 3e-3 -0.074 1e-3 -0.027 1e-3 -0.066 1e-3 -0.117 0-0.56-0.147-0.994-0.442-1.303-0.296-0.308-0.711-0.462-1.247-0.462-0.263 0-0.497 0.04-0.702 0.119-0.206 0.079-0.388 0.2-0.55 0.363-0.154 0.155-0.274 0.339-0.359 0.551-0.085 0.213-0.127 0.435-0.127 0.668 0 0.242 0.041 0.465 0.124 0.669 0.083 0.203 0.206 0.386 0.372 0.55 0.162 0.158 0.349 0.277 0.559 0.359 0.211 0.081 0.439 0.121 0.683 0.121 0.318 0 0.6-0.063 0.844-0.188 0.246-0.126 0.452-0.313 0.619-0.562l-0.768-0.368c-0.092 0.126-0.195 0.22-0.31 0.28-0.115 0.063-0.243 0.093-0.385 0.093-0.265 0-0.473-0.089-0.626-0.265-0.153-0.178-0.229-0.419-0.229-0.725 0-0.31 0.076-0.553 0.229-0.73 0.153-0.178 0.361-0.267 0.626-0.267 0.225 0 0.413 0.055 0.563 0.166 0.15 0.11 0.237 0.256 0.263 0.44z" fill="#a3bebf"/></g><g transform="translate(123.9316,38.4453)"><path d="m0 0h0.882l-0.331 1.071c-0.011 0.033-0.025 0.085-0.042 0.158-0.018 0.073-0.041 0.166-0.07 0.28-0.018-0.08-0.038-0.156-0.056-0.229-0.019-0.073-0.037-0.141-0.057-0.209zm-1.24-1.215 1.121 3.25h1.109l1.123-3.25h-0.881l-0.164 0.582h-1.258l-0.169-0.582z" fill="#a3bebf"/></g><g transform="translate(128.6299,37.2305)"><path d="m0 0v3.25h0.854l1.228-1.672c0.023-0.033 0.063-0.102 0.116-0.205 0.054-0.103 0.114-0.226 0.179-0.367-0.018 0.135-0.03 0.254-0.039 0.359-8e-3 0.106-0.012 0.198-0.012 0.28v1.605h0.85v-3.25h-0.85l-1.227 1.678c-0.026 0.035-0.066 0.103-0.12 0.205-0.053 0.103-0.112 0.224-0.176 0.363 0.018-0.136 0.031-0.256 0.039-0.361 9e-3 -0.106 0.012-0.199 0.012-0.28v-1.605z" fill="#a3bebf"/></g><g transform="translate(149.1719,38.4453)"><path transform="matrix(.75000002 0 0 -.75000002 -149.1719 249.55471)" d="m201.50977 333.76953c0.0389 0.20339 0.0774 0.40713 0.11718 0.58985h0.0859z" fill="#a3bebf"/></g><g fill="#62f2ff"><path d="m103.715 132.916h0.514v2.124h-0.514z"/><path d="m103.567 130.176h0.513v2.123h-0.513z"/><path d="m103.778 135.666h0.513v2.125h-0.513z"/><path d="m103.765 138.434h0.514v2.124h-0.514z"/><path d="m103.314 127.438h0.514v2.125h-0.514z"/><path d="m103.678 141.227h0.515v2.125h-0.515z"/><path d="m95.807 108.271h0.513v2.124h-0.513z"/><path d="m99.373 113.753h0.514v2.124h-0.514z"/><path d="m103.513 144.059h0.513v2.124h-0.513z"/><path d="m100.647 116.491h0.514v2.125h-0.514z"/><path d="m101.637 119.229h0.514v2.125h-0.514z"/><path d="m102.385 121.967h0.515v2.124h-0.515z"/><path d="m102.932 124.702h0.514v2.124h-0.514z"/><path d="m97.773 111.013h0.514v2.124h-0.514z"/><path d="m74.778 198.663h0.513v2.125h-0.513z"/><path d="m93.875 174.145h0.514v2.124h-0.514z"/><path d="m87.946 182.98h0.514v2.124h-0.514z"/><path d="m91.163 178.419h0.514v2.124h-0.514z"/><path d="m103.25 146.943h0.514v2.123h-0.514z"/><path d="m79.798 193.077h0.513v2.124h-0.513z"/><path d="m84.174 187.858h0.513v2.123h-0.513z"/><path d="m102.341 152.928h0.513v2.124h-0.513z"/><path d="m102.87 149.893h0.514v2.123h-0.514z"/><path d="m101.627 156.067h0.514v2.124h-0.514z"/><path d="m100.693 159.334h0.513v2.124h-0.513z"/><path d="m97.991 166.337h0.514v2.124h-0.514z"/><path d="m99.495 162.748h0.514v2.125h-0.514z"/><path d="m96.134 170.127h0.514v2.123h-0.514z"/><path d="m115.587 177.858h2.122v2.125h-2.122z"/><path d="m97.932 79.629h2.124v0.654h-2.124z"/><path d="m171.594 102.828h2.126v2.125h-2.126z"/><path d="m171.594 105.563h2.126v2.123h-2.126z"/><path d="m105.061 79.643h2.124v0.653h-2.124z"/><path d="m111.439 79.653h2.123v0.653h-2.123z"/></g><g transform="translate(114.1304,182.9805)"><path d="m0 0v-1.562h1.624z" fill="#62f2ff"/></g><g fill="#62f2ff"><path d="m171.594 116.501h2.126v2.125h-2.126z"/><path d="m171.594 119.236h2.126v2.124h-2.126z"/><path d="m93.438 105.531h0.514v2.123h-0.514z"/><path d="m171.594 121.971h2.126v2.125h-2.126z"/><path d="m171.594 113.767h2.126v2.124h-2.126z"/><path d="m171.594 111.031h2.126v2.125h-2.126z"/><path d="m171.594 108.297h2.126v2.124h-2.126z"/><path d="m79.515 94.551h0.514v2.122h-0.514z"/><path d="m83.667 97.297h0.514v2.124h-0.514z"/><path d="m74.971 91.801h0.513v2.124h-0.513z"/><path d="m87.38 100.043h0.513v2.123h-0.513z"/><path d="m70.122 89.051h0.513v2.125h-0.513z"/><path d="m90.637 102.787h0.513v2.125h-0.513z"/><path d="m81.073 79.595h2.122v0.654h-2.122z"/><path d="m71.192 79.573h2.123v0.654h-2.123z"/><path d="m65.114 86.301h0.514v2.125h-0.514z"/><path d="m60.255 79.549h2.123v0.654h-2.123z"/><path d="m89.965 79.613h2.124v0.654h-2.124z"/><path d="m55.514 80.802h0.513v2.124h-0.513z"/><path d="m60.153 83.551h0.514v2.123h-0.514z"/><path d="m102.999 156.013h2.123v2.125h-2.123z"/><path d="m99.665 111.015h2.123v2.124h-2.123z"/><path d="m95.75 105.534h2.122v2.123h-2.122z"/><path d="m97.887 108.274h2.124v2.124h-2.124z"/><path d="m93.229 102.791h2.123v2.125h-2.123z"/><path d="m87.003 97.303h2.123v2.125h-2.123z"/><path d="m83.328 94.559h2.123v2.123h-2.123z"/><path d="m104.89 130.176h2.123v2.123h-2.123z"/><path d="m69.087 204.63h0.514v2.125h-0.514z"/><path d="m103.834 121.967h2.124v2.125h-2.124z"/><path d="m101.113 113.754h2.123v2.124h-2.123z"/><path d="m104.667 127.438h2.123v2.124h-2.123z"/><path d="m103.161 119.23h2.123v2.123h-2.123z"/><path d="m102.266 116.492h2.123v2.125h-2.123z"/><path d="m90.312 100.048h2.123v2.124h-2.123z"/><path d="m86.988 191.359h2.123v2.124h-2.123z"/><path d="m82.812 196.465h2.124v2.125h-2.124z"/><path d="m90.703 186.516h2.122v2.123h-2.122z"/><path d="m79.34 91.811h2.123v2.124h-2.123z"/><path d="m96.762 177.604h2.123v2.124h-2.123z"/><path d="m78.208 201.815h2.123v2.125h-2.123z"/><path d="m93.956 181.933h2.123v2.124h-2.123z"/><path d="m70.823 86.314h2.123v2.125h-2.123z"/><path d="m62.731 80.82h2.123v2.123h-2.123z"/><path d="m73.252 207.365h2.124v2.125h-2.124z"/><path d="m75.125 89.063h2.123v2.124h-2.123z"/><path d="m66.614 83.567h2.122v2.124h-2.122z"/></g><g transform="translate(68.1851,214.7646)"><path d="m0 0v-1.787h1.859z" fill="#62f2ff"/></g><g fill="#62f2ff"><path d="m104.325 124.702h2.123v2.124h-2.123z"/><path d="m92.963 178.121h2.123v2.124h-2.123z"/><path d="m82.195 192.441h2.123v2.124h-2.123z"/><path d="m66.435 209.596h2.124v2.125h-2.124z"/><path d="m72.232 203.568h2.122v2.125h-2.122z"/><path d="m86.321 187.363h2.123v2.123h-2.123z"/><path d="m89.899 182.596h2.123v2.124h-2.123z"/><path d="m77.498 197.842h2.123v2.125h-2.123z"/><path d="m55.761 217.668h0.514v2.124h-0.514z"/><path d="m62.728 210.977h0.513v2.125h-0.513z"/><path d="m60.222 215.859h2.123v2.124h-2.123z"/><path d="m48.36 224.606h0.515v2.124h-0.515z"/></g><g transform="translate(43.1421,230.6304)"><path d="m0 0v-0.327h0.341z" fill="#62f2ff"/></g><path d="m105.019 132.915h2.123v2.124h-2.123z" fill="#62f2ff"/><g transform="translate(53.9414,223.9932)"><path d="m0 0v-1.833h1.905z" fill="#62f2ff"/></g><g fill="#62f2ff"><path d="m104.968 141.22h2.122v2.124h-2.122z"/><path d="m104.809 144.048h2.123v2.124h-2.123z"/><path d="m104.194 149.866h2.122v2.123h-2.122z"/><path d="m104.558 146.925h2.123v2.124h-2.123z"/><path d="m105.07 135.665h2.124v2.124h-2.124z"/><path d="m105.053 138.43h2.123v2.124h-2.123z"/><path d="m171.593 124.706h2.125v2.124h-2.125z"/><path d="m99.503 166.204h2.122v2.124h-2.122z"/><path d="m100.949 162.647h2.122v2.125h-2.122z"/><path d="m97.72 169.951h2.123v2.123h-2.123z"/><path d="m95.556 173.915h2.122v2.124h-2.122z"/><path d="m103.685 152.889h2.123v2.125h-2.123z"/><path d="m102.1 159.259h2.123v2.124h-2.123z"/><path d="m162.93 111.031h2.124v2.125h-2.124z"/><path d="m151.325 138.421h2.124v2.124h-2.124z"/><path d="m151.2 143.996h2.124v2.124h-2.124z"/><path d="m151.353 135.662h2.124v2.125h-2.124z"/><path d="m151.276 141.195h2.124v2.125h-2.124z"/><path d="m151.372 130.177h2.125v2.123h-2.125z"/><path d="m151.374 127.439h2.125v2.125h-2.125z"/><path d="m151.366 132.916h2.125v2.124h-2.125z"/><path d="m148.486 130.176h2.123v2.123h-2.123z"/><path d="m148.482 132.913h2.123v2.124h-2.123z"/><path d="m148.487 124.705h2.122v2.124h-2.122z"/></g><g transform="translate(150.9814,150.7617)"><path d="m0 0v-1.11h1.154z" fill="#62f2ff"/></g><path d="m148.487 127.439h2.122v2.125h-2.122z" fill="#62f2ff"/><g transform="translate(151.0889,148.9497)"><path d="m0 0v-2.123h2.123v1.8l-0.335 0.323z" fill="#62f2ff"/></g><g fill="#62f2ff"><path d="m154.251 132.92h2.125v2.125h-2.125z"/><path d="m154.263 127.44h2.125v2.124h-2.125z"/><path d="m154.26 130.178h2.126v2.123h-2.126z"/><path d="m148.475 135.656h2.121v2.124h-2.121z"/><path d="m154.263 124.705h2.127v2.124h-2.127z"/><path d="m151.374 121.971h2.125v2.125h-2.125z"/><path d="m154.263 119.236h2.127v2.124h-2.127z"/><path d="m154.263 121.971h2.127v2.125h-2.127z"/></g><g transform="translate(154.0352,146.166)"><path d="m0 0v-2.124h2.126v1.755l-0.384 0.369z" fill="#62f2ff"/></g><g transform="translate(153.9404,147.9219)"><path d="m0 0v-1.064h1.107z" fill="#62f2ff"/></g><g fill="#62f2ff"><path d="m151.374 124.705h2.125v2.124h-2.125z"/><path d="m154.192 138.437h2.127v2.125h-2.127z"/><path d="m154.131 141.225h2.126v2.125h-2.126z"/><path d="m154.231 135.672h2.125v2.125h-2.125z"/><path d="m145.598 132.91h2.123v2.125h-2.123z"/><path d="m142.698 138.388h2.124v2.124h-2.124z"/><path d="m142.706 135.647h2.125v2.124h-2.125z"/><path d="m142.708 132.91h2.125v2.124h-2.125z"/><path d="m142.709 130.175h2.125v2.124h-2.125z"/><path d="m148.454 138.406h2.122v2.125h-2.122z"/></g><g transform="translate(145.0811,156.4199)"><path d="m0 0v-1.199h1.247z" fill="#62f2ff"/></g><g transform="translate(142.2554,157.2812)"><path d="m0 0v-2.124h2.125v1.937l-0.195 0.187z" fill="#62f2ff"/></g><g fill="#62f2ff"><path d="m142.414 152.296h2.125v2.125h-2.125z"/><path d="m145.349 149.53h2.122v2.123h-2.122z"/><path d="m142.526 149.471h2.125v2.123h-2.125z"/><path d="m142.682 141.137h2.125v2.123h-2.125z"/><path d="m142.652 143.896h2.124v2.124h-2.124z"/><path d="m142.603 146.673h2.124v2.123h-2.124z"/></g><g transform="translate(145.2119,154.5039)"><path d="m0 0v-2.125h2.122v1.892l-0.242 0.233z" fill="#62f2ff"/></g><g transform="translate(148.1484,151.729)"><path d="m0 0v-2.124h2.123v1.847l-0.287 0.277z" fill="#62f2ff"/></g><g fill="#62f2ff"><path d="m148.273 146.766h2.121v2.123h-2.121z"/><path d="m145.6 130.176h2.122v2.123h-2.122z"/><path d="m145.446 146.714h2.122v2.123h-2.122z"/><path d="m148.418 141.172h2.123v2.123h-2.123z"/><path d="m148.36 143.956h2.122v2.124h-2.122z"/></g><g transform="translate(148.0322,153.5937)"><path d="m0 0v-1.155h1.199z" fill="#62f2ff"/></g><g fill="#62f2ff"><path d="m145.554 141.151h2.122v2.124h-2.122z"/><path d="m145.6 127.439h2.122v2.125h-2.122z"/><path d="m145.579 138.396h2.122v2.124h-2.122z"/><path d="m145.512 143.922h2.122v2.125h-2.122z"/></g><g transform="translate(156.9023,145.0801)"><path d="m0 0v-1.02h1.06z" fill="#62f2ff"/></g><g fill="#62f2ff"><path d="m145.592 135.65h2.123v2.125h-2.123z"/><path d="m160.015 132.932h2.123v2.124h-2.123z"/><path d="m165.817 121.971h2.123v2.125h-2.123z"/><path d="m165.816 124.705h2.124v2.125h-2.124z"/><path d="m165.813 127.443h2.123v2.125h-2.123z"/><path d="m165.817 119.236h2.123v2.124h-2.123z"/><path d="m165.817 116.501h2.123v2.125h-2.123z"/><path d="m165.817 113.767h2.123v2.124h-2.123z"/><path d="m165.802 130.188h2.123v2.124h-2.123z"/><path d="m99.149 173.514h2.123v2.124h-2.123z"/><path d="m165.817 108.297h2.123v2.124h-2.123z"/><path d="m162.93 113.767h2.124v2.124h-2.124z"/><path d="m162.93 116.501h2.124v2.125h-2.124z"/><path d="m162.93 119.236h2.124v2.124h-2.124z"/></g><g transform="translate(165.7451,136.5898)"><path d="m0 0v-0.884h0.918z" fill="#62f2ff"/></g><g transform="translate(165.7764,135.0684)"><path d="m0 0v-2.125h2.124v1.576l-0.57 0.549z" fill="#62f2ff"/></g><g fill="#62f2ff"><path d="m165.817 111.031h2.123v2.125h-2.123z"/><path d="m168.706 105.563h2.124v2.123h-2.124z"/><path d="m168.706 113.767h2.124v2.124h-2.124z"/><path d="m168.706 108.297h2.124v2.124h-2.124z"/><path d="m168.706 116.501h2.124v2.125h-2.124z"/></g><g transform="translate(171.5771,130.9844)"><path d="m0 0v-0.795h0.826z" fill="#62f2ff"/></g><path d="m168.706 111.031h2.124v2.125h-2.124z" fill="#62f2ff"/><g transform="translate(168.6865,132.3145)"><path d="m0 0v-2.123h2.124v1.529l-0.618 0.594z" fill="#62f2ff"/></g><path d="m168.7 127.445h2.124v2.123h-2.124z" fill="#62f2ff"/><g transform="translate(168.668,133.7793)"><path d="m0 0v-0.838h0.87z" fill="#62f2ff"/></g><g fill="#62f2ff"><path d="m168.706 119.236h2.124v2.124h-2.124z"/><path d="m168.706 121.971h2.124v2.125h-2.124z"/><path d="m168.705 124.705h2.124v2.125h-2.124z"/><path d="m162.93 121.971h2.124v2.125h-2.124z"/></g><g transform="translate(171.5869,129.5703)"><path d="m0 0v-2.125h2.125v1.484l-0.665 0.641z" fill="#62f2ff"/></g><g transform="translate(159.8604,142.2412)"><path d="m0 0v-0.976h1.012z" fill="#62f2ff"/></g><path d="m157.152 116.501h2.124v2.125h-2.124z" fill="#62f2ff"/><path d="m159.981 135.694h2.123v2.124h-2.123z" fill="#62f2ff"/><g transform="translate(159.9229,140.6025)"><path d="m0 0v-2.124h2.124v1.665l-0.477 0.459z" fill="#62f2ff"/></g><path d="m157.152 121.971h2.124v2.125h-2.124z" fill="#62f2ff"/><g transform="translate(156.9824,143.3818)"><path d="m0 0v-2.124h2.124v1.71l-0.43 0.414z" fill="#62f2ff"/></g><g fill="#62f2ff"><path d="m157.107 135.683h2.124v2.124h-2.124z"/><path d="m157.06 138.457h2.124v2.125h-2.124z"/><path d="m157.134 132.926h2.123v2.123h-2.123z"/><path d="m157.152 124.705h2.124v2.124h-2.124z"/><path d="m157.146 130.18h2.124v2.123h-2.124z"/><path d="m157.151 127.441h2.124v2.123h-2.124z"/><path d="m157.152 119.236h2.124v2.124h-2.124z"/><path d="m162.896 132.937h2.124v2.125h-2.124z"/></g><g transform="translate(162.8564,137.832)"><path d="m0 0v-2.125h2.123v1.619l-0.523 0.506z" fill="#62f2ff"/></g><g transform="translate(162.8096,139.4102)"><path d="m0 0v-0.93h0.965z" fill="#62f2ff"/></g><g fill="#62f2ff"><path d="m162.917 130.186h2.123v2.123h-2.123z"/><path d="m162.93 124.705h2.124v2.125h-2.124z"/><path d="m160.032 130.183h2.123v2.124h-2.123z"/><path d="m162.927 127.443h2.123v2.123h-2.123z"/><path d="m160.04 121.971h2.124v2.125h-2.124z"/><path d="m160.04 124.705h2.124v2.124h-2.124z"/><path d="m160.038 127.441h2.124v2.125h-2.124z"/><path d="m160.04 116.501h2.124v2.125h-2.124z"/><path d="m160.04 113.767h2.124v2.124h-2.124z"/><path d="m160.04 119.236h2.124v2.124h-2.124z"/><path d="m100.062 105.539h2.124v2.123h-2.124z"/></g><g transform="translate(107.582,187.833)"><path d="m0 0v-1.607h1.667z" fill="#62f2ff"/></g><g fill="#62f2ff"><path d="m98.794 80.896h2.125v2.124h-2.125z"/><path d="m109.527 182.387h2.124v2.123h-2.124z"/><path d="m100.195 83.635h2.125v2.124h-2.125z"/><path d="m112.922 174.991h2.123v2.124h-2.123z"/><path d="m111.324 178.633h2.122v2.124h-2.122z"/><path d="m114.316 171.464h2.124v2.124h-2.124z"/><path d="m108.485 97.334h2.125v2.124h-2.125z"/><path d="m109.97 100.072h2.125v2.125h-2.125z"/><path d="m101.778 86.375h2.124v2.124h-2.124z"/><path d="m111.308 102.813h2.125v2.123h-2.125z"/><path d="m105.188 91.855h2.124v2.123h-2.124z"/><path d="m103.467 89.114h2.125v2.124h-2.125z"/><path d="m106.879 94.596h2.124v2.122h-2.124z"/><path d="m119.534 141.152h2.123v2.124h-2.123z"/><path d="m101.151 169.644h2.123v2.123h-2.123z"/><path d="m119.458 143.931h2.123v2.124h-2.123z"/><path d="m119.589 132.91h2.123v2.124h-2.123z"/><path d="m119.592 135.648h2.124v2.125h-2.124z"/><path d="m115.51 168.053h2.123v2.123h-2.123z"/><path d="m119.332 146.737h2.122v2.124h-2.122z"/><path d="m117.324 161.551h2.123v2.125h-2.123z"/><path d="m116.507 164.75h2.124v2.124h-2.124z"/><path d="m119.14 149.58h2.123v2.123h-2.123z"/><path d="m117.975 158.446h2.124v2.124h-2.124z"/><path d="m118.481 155.423h2.124v2.125h-2.124z"/><path d="m118.864 152.472h2.123v2.124h-2.123z"/><path d="m116.674 138.4h2.124v2.125h-2.124z"/><path d="m115.367 155.551h2.124v2.124h-2.124z"/><path d="m115.815 152.562h2.125v2.124h-2.125z"/><path d="m114.774 158.623h2.125v2.124h-2.125z"/><path d="m116.143 149.642h2.125v2.123h-2.125z"/><path d="m116.373 146.777h2.124v2.123h-2.124z"/><path d="m114.013 161.79h2.124v2.125h-2.124z"/><path d="m104.816 183.421h2.125v2.123h-2.125z"/><path d="m106.96 179.468h2.125v2.125h-2.125z"/><path d="m113.061 165.066h2.124v2.124h-2.124z"/><path d="m116.526 143.955h2.125v2.124h-2.125z"/><path d="m108.855 175.658h2.124v2.124h-2.124z"/><path d="m110.498 171.991h2.124v2.124h-2.124z"/><path d="m111.895 168.463h2.125v2.123h-2.125z"/><path d="m112.481 105.551h2.125v2.123h-2.125z"/><path d="m114.999 113.762h2.125v2.124h-2.125z"/><path d="m116.232 121.97h2.125v2.124h-2.125z"/><path d="m115.938 119.234h2.125v2.124h-2.125z"/><path d="m115.533 116.498h2.125v2.125h-2.125z"/><path d="m114.321 111.024h2.125v2.124h-2.125z"/><path d="m113.484 108.287h2.125v2.123h-2.125z"/><path d="m116.569 127.439h2.124v2.124h-2.124z"/><path d="m116.694 135.652h2.124v2.123h-2.124z"/><path d="m119.565 130.175h2.123v2.124h-2.123z"/><path d="m102.441 187.504h2.125v2.124h-2.125z"/><path d="m116.437 124.704h2.124v2.124h-2.124z"/><path d="m116.648 130.175h2.124v2.123h-2.124z"/><path d="m116.621 141.165h2.125v2.124h-2.125z"/><path d="m116.687 132.91h2.124v2.125h-2.124z"/><path d="m121.886 116.499h2.123v2.125h-2.123z"/><path d="m122.375 124.705h2.123v2.124h-2.123z"/><path d="m122.271 121.971h2.123v2.124h-2.123z"/><path d="m122.384 143.908h2.123v2.125h-2.123z"/><path d="m120.679 108.291h2.123v2.124h-2.123z"/><path d="m121.179 111.027h2.123v2.125h-2.123z"/><path d="m121.578 113.764h2.123v2.124h-2.123z"/><path d="m122.473 138.389h2.123v2.124h-2.123z"/><path d="m122.438 127.439h2.123v2.125h-2.123z"/><path d="m122.486 135.646h2.123v2.125h-2.123z"/><path d="m122.442 141.141h2.123v2.124h-2.123z"/><path d="m122.485 132.91h2.123v2.124h-2.123z"/><path d="m122.471 130.175h2.124v2.124h-2.124z"/><path d="m122.113 119.234h2.123v2.125h-2.123z"/><path d="m52.52 79.529h0.514v0.653h-0.514z"/><path d="m112.744 83.656h2.123v2.123h-2.123z"/><path d="m111.935 80.918h2.124v2.125h-2.124z"/><path d="m186.484 199.528h1.207v0.838h-1.207z"/></g><g transform="translate(125.3047,145.8213)"><path d="m0 0c0.576-0.651 1.156-1.298 1.745-1.931h0.38v2.124h-2.125z" fill="#62f2ff"/></g><g fill="#62f2ff"><path d="m113.668 86.394h2.122v2.124h-2.122z"/><path d="m118.556 100.082h2.124v2.123h-2.124z"/><path d="m120.075 105.556h2.123v2.124h-2.123z"/><path d="m119.366 102.818h2.123v2.125h-2.123z"/><path d="m117.659 97.345h2.123v2.124h-2.123z"/><path d="m116.693 94.607h2.123v2.123h-2.123z"/><path d="m114.661 89.131h2.123v2.125h-2.123z"/><path d="m115.682 91.869h2.123v2.124h-2.123z"/><path d="m114.381 100.077h2.123v2.124h-2.123z"/><path d="m119.512 127.439h2.123v2.124h-2.123z"/><path d="m115.433 102.815h2.123v2.124h-2.123z"/><path d="m117.144 108.289h2.123v2.124h-2.123z"/><path d="m116.355 105.553h2.123v2.123h-2.123z"/><path d="m111.958 94.602h2.123v2.123h-2.123z"/><path d="m113.216 97.34h2.123v2.124h-2.123z"/><path d="m119.418 124.704h2.123v2.124h-2.123z"/><path d="m119.047 119.234h2.123v2.124h-2.123z"/><path d="m117.798 111.026h2.123v2.124h-2.123z"/><path d="m110.642 91.863h2.123v2.123h-2.123z"/><path d="m119.269 121.97h2.122v2.124h-2.122z"/><path d="m118.738 116.498h2.123v2.125h-2.123z"/><path d="m118.327 113.763h2.123v2.124h-2.123z"/><path d="m122.128 149.523h2.124v2.123h-2.124z"/><path d="m121.158 158.28h2.123v2.124h-2.123z"/><path d="m121.583 155.303h2.123v2.124h-2.123z"/><path d="m119.92 164.456h2.123v2.124h-2.123z"/><path d="m120.609 161.328h2.123v2.125h-2.123z"/><path d="m122.284 146.7h2.123v2.124h-2.123z"/><path d="m121.9 152.387h2.123v2.125h-2.123z"/><path d="m105.718 80.908h2.123v2.124h-2.123z"/><path d="m106.787 83.646h2.124v2.123h-2.124z"/><path d="m109.307 89.123h2.123v2.125h-2.123z"/><path d="m108.003 86.385h2.123v2.125h-2.123z"/><path d="m119.08 167.67h2.123v2.123h-2.123z"/><path d="m118.079 170.974h2.124v2.124h-2.124z"/><path d="m116.914 174.371h2.123v2.124h-2.123z"/><path d="m119.576 138.395h2.122v2.124h-2.122z"/><path d="m100.716 176.999h2.122v2.124h-2.122z"/><path d="m98.203 181.161h2.122v2.125h-2.122z"/><path d="m95.313 185.537h2.123v2.123h-2.123z"/><path d="m92.048 190.126h2.122v2.124h-2.122z"/><path d="m102.867 173.043h2.122v2.124h-2.122z"/><path d="m104.679 169.279h2.122v2.123h-2.122z"/><path d="m88.426 194.917h2.122v2.125h-2.122z"/><path d="m73.098 80.844h2.123v2.123h-2.123z"/><path d="m79.454 86.332h2.123v2.125h-2.123z"/><path d="m76.123 83.588h2.123v2.123h-2.123z"/><path d="m106.181 165.692h2.122v2.124h-2.122z"/><path d="m84.5 199.882h2.122v2.124h-2.122z"/></g><g transform="translate(80.4312,206.6709)"><path d="m0 0v-1.743h1.812z" fill="#62f2ff"/></g><g fill="#62f2ff"><path d="m110.661 144.005h2.122v2.124h-2.122z"/><path d="m110.888 135.658h2.122v2.125h-2.122z"/><path d="m110.864 138.416h2.122v2.124h-2.122z"/></g><g transform="translate(99.9082,193.3306)"><path d="m0 0v-1.653h1.716z" fill="#62f2ff"/></g><g fill="#62f2ff"><path d="m110.64 127.439h2.122v2.124h-2.122z"/><path d="m107.403 162.262h2.122v2.125h-2.122z"/><path d="m110.785 130.176h2.122v2.123h-2.122z"/><path d="m110.792 141.194h2.122v2.124h-2.122z"/><path d="m109.721 152.742h2.122v2.125h-2.122z"/><path d="m82.908 89.078h2.123v2.123h-2.123z"/><path d="m108.379 158.974h2.122v2.124h-2.122z"/><path d="m109.141 155.806h2.123v2.125h-2.123z"/><path d="m110.149 149.765h2.122v2.123h-2.122z"/><path d="m110.454 146.857h2.122v2.123h-2.122z"/><path d="m107.841 130.175h2.123v2.124h-2.123z"/><path d="m107.879 141.208h2.124v2.124h-2.124z"/><path d="m107.732 144.028h2.123v2.124h-2.123z"/><path d="m107.96 138.423h2.123v2.124h-2.123z"/><path d="m107.944 132.914h2.122v2.125h-2.122z"/><path d="m110.412 124.703h2.122v2.125h-2.122z"/><path d="m107.502 146.894h2.123v2.123h-2.123z"/><path d="m107.981 135.662h2.123v2.124h-2.123z"/><path d="m104.147 162.472h2.123v2.124h-2.123z"/><path d="m102.805 165.969h2.122v2.124h-2.122z"/><path d="m105.219 159.129h2.123v2.124h-2.123z"/><path d="m106.693 152.822h2.123v2.124h-2.123z"/><path d="m107.164 149.819h2.124v2.124h-2.124z"/><path d="m106.055 155.918h2.123v2.125h-2.123z"/><path d="m86.337 91.824h2.123v2.123h-2.123z"/><path d="m101.885 108.277h2.122v2.124h-2.122z"/></g><g transform="translate(142.0986,159.2578)"><path d="m0 0v-1.245h1.296z" fill="#62f2ff"/></g><g fill="#62f2ff"><path d="m95.456 100.055h2.123v2.124h-2.123z"/><path d="m97.92 102.797h2.123v2.124h-2.123z"/><path d="m89.622 94.568h2.123v2.123h-2.123z"/><path d="m92.68 97.313h2.123v2.123h-2.123z"/><path d="m105.628 116.494h2.123v2.125h-2.123z"/><path d="m103.405 111.018h2.123v2.124h-2.123z"/><path d="m106.391 119.23h2.123v2.125h-2.123z"/><path d="m107.374 124.703h2.123v2.124h-2.123z"/><path d="m106.961 121.968h2.123v2.124h-2.123z"/><path d="m107.658 127.439h2.123v2.123h-2.123z"/><path d="m104.643 113.756h2.123v2.125h-2.123z"/><path d="m110.864 132.913h2.122v2.124h-2.122z"/><path d="m113.612 127.439h2.124v2.124h-2.124z"/><path d="m113.721 130.175h2.124v2.124h-2.124z"/><path d="m112.274 116.496h2.124v2.125h-2.124z"/><path d="m113.779 132.912h2.124v2.124h-2.124z"/><path d="m112.788 119.232h2.124v2.125h-2.124z"/><path d="m113.167 121.969h2.124v2.125h-2.124z"/><path d="m113.434 124.704h2.124v2.124h-2.124z"/><path d="m113.413 146.817h2.124v2.123h-2.124z"/><path d="m113.145 149.704h2.124v2.123h-2.124z"/><path d="m113.593 143.98h2.124v2.124h-2.124z"/><path d="m113.708 141.18h2.124v2.125h-2.124z"/><path d="m113.793 135.655h2.124v2.124h-2.124z"/><path d="m113.771 138.408h2.124v2.124h-2.124z"/><path d="m99.311 91.846h2.124v2.124h-2.124z"/><path d="m101.449 94.588h2.124v2.122h-2.124z"/><path d="m110.074 121.969h2.122v2.124h-2.122z"/><path d="m94.956 86.362h2.124v2.124h-2.124z"/><path d="m97.12 89.104h2.124v2.124h-2.124z"/><path d="m91.092 80.881h2.124v2.124h-2.124z"/><path d="m92.911 83.621h2.124v2.124h-2.124z"/><path d="m108.461 105.547h2.124v2.123h-2.124z"/><path d="m109.711 108.285h2.124v2.123h-2.124z"/><path d="m110.754 111.021h2.124v2.125h-2.124z"/><path d="m103.471 97.327h2.124v2.124h-2.124z"/><path d="m111.604 113.76h2.124v2.124h-2.124z"/><path d="m105.331 100.067h2.124v2.124h-2.124z"/><path d="m107 102.808h2.124v2.124h-2.124z"/><path d="m112.765 152.654h2.124v2.125h-2.124z"/><path d="m102.525 102.803h2.122v2.124h-2.122z"/><path d="m95.683 94.578h2.122v2.123h-2.122z"/><path d="m100.479 100.062h2.122v2.124h-2.122z"/><path d="m98.188 97.32h2.122v2.123h-2.122z"/><path d="m93.014 91.835h2.122v2.124h-2.122z"/><path d="m90.257 89.092h2.122v2.123h-2.122z"/><path d="m109.603 119.232h2.122v2.124h-2.122z"/><path d="m104.311 105.543h2.122v2.123h-2.122z"/><path d="m87.51 86.348h2.122v2.125h-2.122z"/><path d="m112.249 155.681h2.124v2.125h-2.124z"/><path d="m108.968 116.495h2.122v2.125h-2.122z"/><path d="m107.108 111.02h2.122v2.125h-2.122z"/><path d="m105.835 108.281h2.122v2.123h-2.122z"/><path d="m108.146 113.758h2.122v2.125h-2.122z"/><path d="m104.768 176.338h2.124v2.124h-2.124z"/><path d="m108.274 168.879h2.124v2.123h-2.124z"/><path d="m106.666 172.526h2.124v2.124h-2.124z"/><path d="m109.61 165.385h2.124v2.124h-2.124z"/><path d="m110.699 162.031h2.124v2.125h-2.124z"/><path d="m111.57 158.802h2.124v2.124h-2.124z"/><path d="m97.241 188.817h2.124v2.124h-2.124z"/></g><g transform="translate(90.9307,199.5669)"><path d="m0 0v-1.697h1.765z" fill="#62f2ff"/></g><g fill="#62f2ff"><path d="m94.164 193.299h2.124v2.125h-2.124z"/><path d="m84.891 83.605h2.122v2.123h-2.122z"/><path d="m102.563 180.324h2.124v2.125h-2.124z"/><path d="m82.54 80.863h2.122v2.124h-2.122z"/><path d="m100.051 184.487h2.124v2.123h-2.124z"/></g><g transform="translate(129.2627,168.9966)"><path d="m0 0v-2.123h2.124v2.116l-8e-3 7e-3z" fill="#62f2ff"/></g><g fill="#62f2ff"><path d="m185.924 135.74h2.124v2.124h-2.124z"/><path d="m185.829 138.555h2.124v2.125h-2.124z"/><path d="m185.982 132.955h2.124v2.125h-2.124z"/><path d="m186.028 127.445h2.124v2.125h-2.124z"/><path d="m185.683 141.413h2.124v2.124h-2.124z"/><path d="m186.015 130.193h2.123v2.123h-2.123z"/><path d="m183.597 156.864h2.124v2.124h-2.124z"/><path d="m186.035 124.706h2.123v2.124h-2.123z"/><path d="m182.763 160.311h2.124v2.124h-2.124z"/><path d="m185.472 144.329h2.124v2.124h-2.124z"/><path d="m184.262 153.564h2.124v2.125h-2.124z"/><path d="m184.781 150.387h2.123v2.123h-2.123z"/><path d="m162.776 209.886h2.121v0.838h-2.121z"/><path d="m185.177 147.315h2.124v2.124h-2.124z"/><path d="m186.036 97.359h2.124v2.124h-2.124z"/><path d="m186.036 94.625h2.124v2.123h-2.124z"/><path d="m186.036 100.094h2.124v2.124h-2.124z"/><path d="m186.036 89.155h2.124v2.124h-2.124z"/><path d="m186.036 91.891h2.124v2.123h-2.124z"/><path d="m186.036 102.828h2.124v2.125h-2.124z"/><path d="m186.036 108.297h2.124v2.124h-2.124z"/><path d="m139.819 135.646h2.125v2.124h-2.125z"/><path d="m186.036 116.501h2.124v2.125h-2.124z"/><path d="m186.036 119.236h2.124v2.124h-2.124z"/><path d="m186.036 111.031h2.124v2.125h-2.124z"/><path d="m186.036 105.563h2.124v2.123h-2.124z"/><path d="m186.036 121.971h2.124v2.125h-2.124z"/><path d="m181.733 163.922h2.124v2.125h-2.124z"/><path d="m183.147 111.031h2.125v2.125h-2.125z"/><path d="m183.147 113.767h2.125v2.124h-2.125z"/><path d="m180.483 167.723h2.123v2.124h-2.123z"/><path d="m183.147 102.828h2.125v2.125h-2.125z"/><path d="m183.147 119.236h2.125v2.124h-2.125z"/><path d="m183.147 108.297h2.125v2.124h-2.125z"/><path d="m183.147 105.563h2.125v2.123h-2.125z"/><path d="m183.147 121.971h2.125v2.125h-2.125z"/><path d="m183.123 130.195h2.125v2.123h-2.125z"/><path d="m183.027 135.746h2.126v2.125h-2.126z"/><path d="m183.089 132.959h2.125v2.125h-2.125z"/><path d="m183.146 124.707h2.125v2.124h-2.125z"/><path d="m183.14 127.447h2.125v2.123h-2.125z"/><path d="m183.147 116.501h2.125v2.125h-2.125z"/><path d="m172.722 185.274h2.123v2.124h-2.123z"/><path d="m169.97 190.355h2.123v2.123h-2.123z"/><path d="m166.862 195.737h2.123v2.124h-2.123z"/><path d="m175.128 180.489h2.123v2.124h-2.123z"/><path d="m183.147 100.094h2.125v2.124h-2.125z"/><path d="m178.983 171.735h2.124v2.123h-2.124z"/><path d="m177.208 175.983h2.123v2.124h-2.123z"/><path d="m163.41 201.414h2.124v2.125h-2.124z"/><path d="m183.147 91.891h2.125v2.123h-2.125z"/><path d="m183.147 97.359h2.125v2.124h-2.125z"/><path d="m183.147 94.625h2.125v2.123h-2.125z"/><path d="m159.657 207.345h2.124v2.125h-2.124z"/><path d="m156.654 212.64h2.124v0.838h-2.124z"/><path d="m187.268 153.465h2.12v2.125h-2.12z"/><path d="m169.062 206.991h2.123v0.838h-2.123z"/><path d="m178.459 188.044h2.123v2.123h-2.123z"/><path d="m188.927 89.155h2.121v2.124h-2.121z"/><path d="m173.567 197.681h2.122v2.125h-2.122z"/><path d="m188.927 86.421h2.121v2.124h-2.121z"/><path d="m176.087 192.799h2.123v2.124h-2.123z"/><path d="m170.987 202.614h2.123v2.124h-2.123z"/><path d="m188.927 102.828h2.121v2.125h-2.121z"/><path d="m188.927 100.094h2.121v2.124h-2.121z"/><path d="m188.927 108.297h2.121v2.124h-2.121z"/><path d="m188.927 94.625h2.121v2.123h-2.121z"/><path d="m188.927 97.359h2.121v2.124h-2.121z"/><path d="m188.927 91.891h2.121v2.123h-2.121z"/><path d="m188.927 105.563h2.121v2.123h-2.121z"/><path d="m190.747 150.227h2.123v2.123h-2.123z"/><path d="m191.089 147.201h2.123v2.123h-2.123z"/><path d="m190.298 153.343h2.123v2.125h-2.123z"/><path d="m189.724 156.567h2.123v2.124h-2.123z"/><path d="m191.522 141.361h2.123v2.123h-2.123z"/><path d="m191.342 144.25h2.122v2.124h-2.122z"/><path d="m188.12 163.403h2.123v2.125h-2.123z"/><path d="m184.296 174.867h2.121v2.124h-2.121z"/><path d="m185.782 170.865h2.123v2.123h-2.123z"/><path d="m165.207 205.08h2.121v2.124h-2.121z"/><path d="m182.58 179.063h2.122v2.124h-2.122z"/><path d="m180.632 183.457h2.123v2.125h-2.123z"/><path d="m187.052 167.048h2.123v2.124h-2.123z"/><path d="m189.005 159.915h2.123v2.124h-2.123z"/><path d="m184.896 163.689h2.121v2.125h-2.121z"/><path d="m183.728 167.42h2.121v2.124h-2.121z"/><path d="m182.332 171.345h2.122v2.123h-2.122z"/><path d="m187.755 150.315h2.121v2.123h-2.121z"/><path d="m186.644 156.731h2.121v2.125h-2.121z"/><path d="m182.927 138.565h2.125v2.124h-2.125z"/><path d="m185.86 160.134h2.121v2.124h-2.121z"/><path d="m171.352 194.375h2.12v2.124h-2.12z"/><path d="m180.687 175.48h2.122v2.124h-2.122z"/><path d="m174.104 189.294h2.121v2.123h-2.121z"/><path d="m168.359 199.659h2.121v2.125h-2.121z"/><path d="m178.776 179.844h2.121v2.124h-2.121z"/><path d="m176.583 184.447h2.121v2.124h-2.121z"/><path d="m188.927 116.501h2.121v2.125h-2.121z"/><path d="m188.927 119.236h2.121v2.124h-2.121z"/><path d="m188.927 121.971h2.121v2.125h-2.121z"/><path d="m188.921 127.445h2.121v2.124h-2.121z"/><path d="m188.925 124.706h2.121v2.124h-2.121z"/><path d="m188.927 113.767h2.121v2.124h-2.121z"/><path d="m188.927 111.031h2.121v2.125h-2.121z"/><path d="m188.878 132.951h2.121v2.124h-2.121z"/><path d="m188.736 138.54h2.121v2.124h-2.121z"/><path d="m188.907 130.191h2.121v2.123h-2.121z"/><path d="m188.403 144.294h2.121v2.124h-2.121z"/><path d="m188.601 141.391h2.122v2.123h-2.122z"/><path d="m188.825 135.73h2.12v2.125h-2.12z"/><path d="m188.127 147.264h2.121v2.123h-2.121z"/><path d="m180.792 130.196h1.566v2.124h-1.566z"/><path d="m200.479 83.686h1.208v2.124h-1.208z"/><path d="m200.479 75.482h1.208v2.123h-1.208z"/><path d="m200.479 89.155h1.208v2.124h-1.208z"/><path d="m200.479 91.891h1.208v2.123h-1.208z"/><path d="m200.479 78.216h1.208v2.126h-1.208z"/><path d="m200.479 80.951h1.208v2.124h-1.208z"/><path d="m200.479 86.421h1.208v2.124h-1.208z"/><path d="m200.479 105.563h1.208v2.123h-1.208z"/><path d="m200.479 102.828h1.208v2.125h-1.208z"/><path d="m200.479 111.031h1.208v2.125h-1.208z"/><path d="m200.479 94.625h1.208v2.123h-1.208z"/><path d="m200.479 100.094h1.208v2.124h-1.208z"/><path d="m200.479 97.359h1.208v2.124h-1.208z"/><path d="m200.479 108.297h1.208v2.124h-1.208z"/></g><g transform="translate(188.9268,84.3262)"><path d="m0 0 0.665-0.641h1.456v2.124h-2.121z" fill="#62f2ff"/></g><g transform="translate(188.1602,85.0615)"><path d="m0 0v0.748h-0.778z" fill="#62f2ff"/></g><g transform="translate(200.4785,73.2344)"><path d="m0 0 0.509-0.486h0.699v2.124h-1.208z" fill="#62f2ff"/></g><g transform="translate(183.1475,89.873)"><path d="m0 0 0.749-0.718h1.376v2.124h-2.125z" fill="#62f2ff"/></g><g transform="translate(186.0361,87.0996)"><path d="m0 0 0.708-0.679h1.416v2.124h-2.124z" fill="#62f2ff"/></g><g transform="translate(185.2725,87.834)"><path d="m0 0v0.711h-0.742z" fill="#62f2ff"/></g><g transform="translate(191.8135,81.5547)"><path d="m0 0 0.627-0.604h1.496v2.125h-2.123z" fill="#62f2ff"/></g><g transform="translate(197.5898,76.0088)"><path d="m0 0 0.55-0.526h1.574v2.123h-2.124z" fill="#62f2ff"/></g><g transform="translate(199.7139,73.9707)"><path d="m0 0v0.901h-0.94z" fill="#62f2ff"/></g><g transform="translate(193.9365,79.5156)"><path d="m0 0v0.826h-0.859z" fill="#62f2ff"/></g><g transform="translate(201.6865,72.0762)"><path d="m0 0v0.061h-0.063z" fill="#62f2ff"/></g><g transform="translate(196.8252,76.7422)"><path d="m0 0v0.863h-0.898z" fill="#62f2ff"/></g><g transform="translate(194.7002,78.7813)"><path d="m0 0 0.591-0.565h1.534v2.126h-2.125z" fill="#62f2ff"/></g><g transform="translate(191.0479,82.29)"><path d="m0 0v0.785h-0.817z" fill="#62f2ff"/></g><g fill="#62f2ff"><path d="m199.452 152.927h1.207v2.124h-1.207z"/><path d="m197.925 162.433h1.207v2.125h-1.207z"/><path d="m196.315 169.273h1.208v2.123h-1.208z"/><path d="m195.317 172.858h1.207v2.124h-1.207z"/><path d="m198.542 159.171h1.207v2.124h-1.207z"/><path d="m199.048 156.005h1.207v2.124h-1.207z"/><path d="m197.185 165.798h1.207v2.124h-1.207z"/><path d="m188.803 192.082h1.208v2.125h-1.208z"/><path d="m194.19 176.552h1.207v2.124h-1.207z"/><path d="m190.214 188.145h1.207v2.124h-1.207z"/><path d="m187.442 195.976h1.207v2.124h-1.207z"/><path d="m191.612 184.22h1.207v2.123h-1.207z"/><path d="m192.948 180.345h1.208v2.124h-1.208z"/><path d="m200.479 124.705h1.208v2.124h-1.208z"/><path d="m200.472 130.181h1.208v2.123h-1.208z"/><path d="m200.478 127.441h1.207v2.123h-1.207z"/><path d="m200.479 121.971h1.208v2.125h-1.208z"/><path d="m200.479 113.767h1.208v2.124h-1.208z"/><path d="m200.479 119.236h1.208v2.124h-1.208z"/><path d="m200.479 116.501h1.208v2.125h-1.208z"/><path d="m200.005 146.987h1.207v2.124h-1.207z"/><path d="m200.179 144.104h1.207v2.124h-1.207z"/><path d="m199.767 149.924h1.207v2.123h-1.207z"/><path d="m200.459 132.926h1.207v2.125h-1.207z"/><path d="m200.3 141.265h1.207v2.124h-1.207z"/><path d="m200.431 135.686h1.207v2.124h-1.207z"/><path d="m200.382 138.462h1.207v2.124h-1.207z"/><path d="m180.26 116.501h2.124v2.125h-2.124z"/><path d="m147.353 216.12h1.565v0.838h-1.565z"/><path d="m151.245 210.067h1.566v2.125h-1.566z"/><path d="m151.118 214.897h2.125v0.838h-2.125z"/><path d="m158.954 202.748h2.125v2.125h-2.125z"/><path d="m155.826 203.429h1.565v2.125h-1.565z"/><path d="m154.674 209.131h2.126v2.124h-2.126z"/><path d="m171.366 176.514h1.565v2.124h-1.565z"/><path d="m169.104 181.176h1.564v2.124h-1.564z"/><path d="m162.786 196.749h2.125v2.124h-2.125z"/></g><g transform="translate(182.3838,90.6064)"><path d="m0 0v0.673h-0.701z" fill="#62f2ff"/></g><g fill="#62f2ff"><path d="m173.284 172.146h1.565v2.123h-1.565z"/><path d="m163.392 191.513h1.566v2.123h-1.566z"/><path d="m166.458 186.164h1.567v2.125h-1.567z"/><path d="m182.247 147.351h2.125v2.123h-2.125z"/><path d="m181.292 153.633h2.125v2.124h-2.125z"/><path d="m179.729 160.434h2.125v2.124h-2.125z"/><path d="m166.172 191.129h2.125v2.123h-2.125z"/><path d="m181.833 150.437h2.125v2.123h-2.125z"/><path d="m182.554 144.354h2.125v2.124h-2.125z"/><path d="m174.894 168.038h1.566v2.124h-1.566z"/><path d="m180.6 156.957h2.125v2.124h-2.125z"/><path d="m178.654 164.084h2.125v2.125h-2.125z"/><path d="m171.698 180.951h2.125v2.124h-2.125z"/><path d="m169.133 185.871h2.125v2.124h-2.125z"/><path d="m173.899 176.341h2.125v2.124h-2.125z"/><path d="m177.345 167.935h2.125v2.124h-2.125z"/><path d="m175.771 172.012h2.125v2.123h-2.125z"/><path d="m159.862 197.255h1.565v2.124h-1.565z"/><path d="m180.26 102.828h2.124v2.125h-2.124z"/><path d="m180.26 100.094h2.124v2.124h-2.124z"/><path d="m180.26 108.297h2.124v2.124h-2.124z"/><path d="m180.26 105.563h2.124v2.123h-2.124z"/><path d="m180.26 97.359h2.124v2.124h-2.124z"/><path d="m180.26 94.625h2.124v2.123h-2.124z"/></g><g transform="translate(180.2598,92.6445)"><path d="m0 0 0.788-0.754h1.336v2.123h-2.124z" fill="#62f2ff"/></g><g transform="translate(180.2598,122.0391)"><path d="m0 0v-0.068h0.062c-0.019 0.023-0.041 0.047-0.062 0.068" fill="#62f2ff"/></g><g fill="#62f2ff"><path d="m180.26 119.236h2.124v2.124h-2.124z"/><path d="m180.817 121.971h1.566v2.125h-1.566z"/><path d="m182.774 141.43h2.125v2.125h-2.125z"/><path d="m180.26 113.767h2.124v2.124h-2.124z"/><path d="m180.26 111.031h2.124v2.125h-2.124z"/><path d="m178.924 153.666h1.565v2.125h-1.565z"/><path d="m179.476 150.461h1.564v2.123h-1.564z"/><path d="m176.231 164.163h1.566v2.125h-1.566z"/><path d="m179.896 147.368h1.567v2.123h-1.567z"/><path d="m177.329 160.494h1.566v2.124h-1.566z"/><path d="m180.815 124.707h1.566v2.124h-1.566z"/><path d="m180.21 144.366h1.566v2.124h-1.566z"/><path d="m178.218 157.001h1.564v2.125h-1.564z"/><path d="m191.646 138.521h2.123v2.125h-2.123z"/><path d="m180.81 127.447h1.565v2.123h-1.565z"/><path d="m180.757 132.961h1.566v2.124h-1.566z"/><path d="m180.694 135.749h1.565v2.124h-1.565z"/><path d="m180.591 138.57h1.566v2.125h-1.566z"/><path d="m180.436 141.437h1.565v2.125h-1.565z"/><path d="m186.036 113.767h2.124v2.124h-2.124z"/></g><g transform="translate(145.5996,125.918)"><path d="m0 0 1.264-1.213h0.858v2.124h-2.122z" fill="#62f2ff"/></g><g transform="translate(141.9458,129.4258)"><path d="m0 0v0.139h-0.146z" fill="#62f2ff"/></g><g transform="translate(144.8335,126.6533)"><path d="m0 0v0.176h-0.184z" fill="#62f2ff"/></g><g transform="translate(142.709,128.6914)"><path d="m0 0 1.304-1.252h0.821v2.125h-2.125z" fill="#62f2ff"/></g><g transform="translate(139.0562,132.1982)"><path d="m0 0v0.101h-0.104z" fill="#62f2ff"/></g><g transform="translate(139.8203,131.4648)"><path d="m0 0 1.344-1.29h0.781v2.124h-2.125z" fill="#62f2ff"/></g><g transform="translate(150.6094,121.1074)"><path d="m0 0v0.253h-0.262z" fill="#62f2ff"/></g><g transform="translate(153.499,118.334)"><path d="m0 0v0.292h-0.302z" fill="#62f2ff"/></g><g transform="translate(154.2627,117.6006)"><path d="m0 0 1.146-1.1h0.981v2.125h-2.127z" fill="#62f2ff"/></g><g transform="translate(151.374,120.373)"><path d="m0 0 1.186-1.137h0.939v2.124h-2.125z" fill="#62f2ff"/></g><g transform="translate(136.9331,134.2363)"><path d="m0 0 1.383-1.327h0.74v2.124h-2.123z" fill="#62f2ff"/></g><g transform="translate(147.7217,123.8809)"><path d="m0 0v0.215h-0.224z" fill="#62f2ff"/></g><g transform="translate(148.4873,123.1465)"><path d="m0 0 1.224-1.176h0.898v2.125h-2.122z" fill="#62f2ff"/></g><g transform="translate(119.7207,178.6831)"><path d="m0 0v-1.517h1.575z" fill="#62f2ff"/></g><g fill="#62f2ff"><path d="m174.483 111.031h2.123v2.125h-2.123z"/><path d="m122.579 167.335h2.125v2.123h-2.125z"/><path d="m123.853 161.133h2.125v2.125h-2.125z"/><path d="m124.661 155.197h2.125v2.124h-2.125z"/><path d="m121.748 170.545h2.125v2.124h-2.125z"/><path d="m124.31 158.135h2.125v2.124h-2.125z"/><path d="m123.279 164.198h2.125v2.124h-2.125z"/></g><g transform="translate(133.2808,137.7422)"><path d="m0 0v0.027h-0.026z" fill="#62f2ff"/></g><g transform="translate(131.1553,139.7832)"><path d="m0 0 1.462-1.404h0.662v2.125h-2.124z" fill="#62f2ff"/></g><g transform="translate(134.0464,137.0088)"><path d="m0 0 1.42-1.364h0.701v2.124h-2.121z" fill="#62f2ff"/></g><g transform="translate(156.3896,115.5605)"><path d="m0 0v0.33h-0.346z" fill="#62f2ff"/></g><path d="m120.787 173.828h2.125v2.124h-2.125z" fill="#62f2ff"/><g transform="translate(128.2485,142.6709)"><path d="m0 0c0.507-0.522 1.011-1.044 1.524-1.548h0.601v2.125h-2.125z" fill="#62f2ff"/></g><g fill="#62f2ff"><path d="m177.37 97.359h2.124v2.124h-2.124z"/><path d="m177.37 111.031h2.124v2.125h-2.124z"/><path d="m177.37 113.767h2.124v2.124h-2.124z"/><path d="m177.37 119.236h2.124v2.124h-2.124z"/><path d="m177.37 116.501h2.124v2.125h-2.124z"/><path d="m177.37 108.297h2.124v2.124h-2.124z"/><path d="m177.37 105.563h2.124v2.123h-2.124z"/><path d="m177.37 102.828h2.124v2.125h-2.124z"/><path d="m174.483 105.563h2.123v2.123h-2.123z"/><path d="m174.483 108.297h2.123v2.124h-2.123z"/><path d="m174.483 100.094h2.123v2.124h-2.123z"/></g><g transform="translate(157.1523,114.8271)"><path d="m0 0 1.104-1.061h1.02v2.124h-2.124z" fill="#62f2ff"/></g><g transform="translate(177.3701,125.1777)"><path d="m0 0v-0.473h0.438c-0.145 0.158-0.292 0.318-0.438 0.473" fill="#62f2ff"/></g><path d="m174.483 102.828h2.123v2.125h-2.123z" fill="#62f2ff"/><g transform="translate(177.3701,124.0957)"><path d="m0 0v-2.125h2.124v0.92c-0.374 0.409-0.745 0.803-1.119 1.205z" fill="#62f2ff"/></g><g transform="translate(165.8174,106.5098)"><path d="m0 0 0.986-0.946h1.137v2.123h-2.123z" fill="#62f2ff"/></g><g transform="translate(165.0537,107.2422)"><path d="m0 0v0.444h-0.463z" fill="#62f2ff"/></g><g transform="translate(162.1641,110.0176)"><path d="m0 0v0.403h-0.422z" fill="#62f2ff"/></g><g transform="translate(162.9297,109.2813)"><path d="m0 0 1.024-0.984h1.1v2.124h-2.124z" fill="#62f2ff"/></g><path d="m124.922 152.313h2.125v2.124h-2.125z" fill="#62f2ff"/><g transform="translate(159.2764,112.7891)"><path d="m0 0v0.367h-0.384z" fill="#62f2ff"/></g><g transform="translate(160.04,112.0547)"><path d="m0 0 1.066-1.023h1.058v2.125h-2.124z" fill="#62f2ff"/></g><g transform="translate(171.5937,100.9648)"><path d="m0 0 0.906-0.871h1.22v2.124h-2.126z" fill="#62f2ff"/></g><g transform="translate(173.7197,98.9248)"><path d="m0 0v0.559h-0.583z" fill="#62f2ff"/></g><g transform="translate(167.9404,104.4717)"><path d="m0 0v0.481h-0.501z" fill="#62f2ff"/></g><path d="m177.37 100.094h2.124v2.124h-2.124z" fill="#62f2ff"/><g transform="translate(168.7061,103.7354)"><path d="m0 0 0.947-0.907h1.177v2.125h-2.124z" fill="#62f2ff"/></g><g transform="translate(170.8301,101.6973)"><path d="m0 0v0.521h-0.542z" fill="#62f2ff"/></g><g transform="translate(136.167,134.9727)"><path d="m0 0v0.061h-0.062z" fill="#62f2ff"/></g><g fill="#62f2ff"><path d="m136.583 155.037h2.123v2.125h-2.123z"/><path d="m136.721 152.205h2.124v2.125h-2.124z"/><path d="m136.389 157.907h2.123v2.124h-2.123z"/><path d="m136.816 149.403h2.123v2.124h-2.123z"/><path d="m136.875 146.626h2.124v2.123h-2.124z"/></g><g transform="translate(136.1353,162.9404)"><path d="m0 0v-2.125h2.122v2.027l-0.102 0.098z" fill="#62f2ff"/></g><g fill="#62f2ff"><path d="m134.023 143.863h2.121v2.124h-2.121z"/><path d="m133.988 146.622h2.121v2.124h-2.121z"/><path d="m136.909 143.867h2.123v2.124h-2.123z"/><path d="m133.925 149.397h2.121v2.123h-2.121z"/><path d="m134.045 138.379h2.121v2.125h-2.121z"/><path d="m134.039 141.117h2.121v2.124h-2.121z"/></g><g transform="translate(135.8604,165.0649)"><path d="m0 0v-1.335h1.389z" fill="#62f2ff"/></g><g transform="translate(139.248,160.0835)"><path d="m0 0v-2.124h2.126v1.981l-0.15 0.143z" fill="#62f2ff"/></g><g fill="#62f2ff"><path d="m139.805 141.125h2.125v2.125h-2.125z"/><path d="m139.784 143.878h2.125v2.124h-2.125z"/><path d="m139.746 146.644h2.126v2.123h-2.126z"/><path d="m136.925 141.119h2.122v2.125h-2.122z"/><path d="m139.815 138.383h2.126v2.124h-2.126z"/><path d="m139.82 132.909h2.125v2.124h-2.125z"/><path d="m125.229 146.668h2.125v2.124h-2.125z"/></g><g transform="translate(139.0474,162.1294)"><path d="m0 0v-1.292h1.342z" fill="#62f2ff"/></g><g fill="#62f2ff"><path d="m139.583 152.238h2.126v2.125h-2.126z"/><path d="m136.933 135.645h2.124v2.125h-2.124z"/><path d="m136.931 138.38h2.123v2.124h-2.123z"/><path d="m133.823 152.198h2.121v2.125h-2.121z"/><path d="m139.442 155.08h2.125v2.125h-2.125z"/><path d="m139.682 149.428h2.125v2.124h-2.125z"/><path d="m128.065 149.434h2.126v2.123h-2.126z"/><path d="m127.918 152.254h2.126v2.125h-2.126z"/><path d="m127.706 155.113h2.126v2.125h-2.126z"/><path d="m128.161 146.644h2.126v2.124h-2.126z"/><path d="m127.416 158.019h2.126v2.124h-2.126z"/><path d="m133.673 155.03h2.121v2.125h-2.121z"/><path d="m128.218 143.876h2.125v2.124h-2.125z"/><path d="m127.037 160.976h2.125v2.125h-2.125z"/><path d="m125.106 149.474h2.125v2.123h-2.125z"/><path d="m125.291 170.199h2.126v2.124h-2.126z"/></g><g transform="translate(124.5249,174.8428)"><path d="m0 0v-1.472h1.53z" fill="#62f2ff"/></g><path d="m126.559 163.991h2.126v2.124h-2.126z" fill="#62f2ff"/><path d="m125.978 167.065h2.127v2.123h-2.127z" fill="#62f2ff"/><g transform="translate(128.7192,171.3525)"><path d="m0 0v-1.426h1.48z" fill="#62f2ff"/></g><g transform="translate(132.4551,168.1182)"><path d="m0 0v-1.379h1.432z" fill="#62f2ff"/></g><g transform="translate(132.8389,165.8931)"><path d="m0 0v-2.124h2.121v2.073l-0.052 0.051z" fill="#62f2ff"/></g><g fill="#62f2ff"><path d="m131.126 143.867h2.124v2.124h-2.124z"/><path d="m131.147 141.119h2.124v2.124h-2.124z"/><path d="m191.726 135.72h2.123v2.124h-2.123z"/><path d="m133.187 160.812h2.121v2.125h-2.121z"/><path d="m130.713 155.056h2.124v2.125h-2.124z"/><path d="m130.471 157.939h2.124v2.124h-2.124z"/><path d="m130.152 160.867h2.124v2.125h-2.124z"/><path d="m129.75 163.845h2.124v2.124h-2.124z"/><path d="m131.008 149.408h2.124v2.123h-2.124z"/><path d="m131.083 146.627h2.124v2.124h-2.124z"/><path d="m130.889 152.215h2.124v2.124h-2.124z"/><path d="m133.463 157.901h2.121v2.124h-2.121z"/><path d="m194.448 141.328h2.125v2.124h-2.125z"/><path d="m194.557 138.501h2.125v2.124h-2.125z"/><path d="m194.287 144.201h2.125v2.124h-2.125z"/><path d="m194.688 130.186h2.125v2.123h-2.125z"/><path d="m194.667 132.937h2.125v2.125h-2.125z"/><path d="m194.626 135.708h2.125v2.124h-2.125z"/><path d="m194.06 147.129h2.125v2.123h-2.125z"/><path d="m189.302 170.326h2.125v2.123h-2.125z"/><path d="m190.434 166.627h2.125v2.124h-2.125z"/><path d="m192.183 159.666h2.125v2.124h-2.125z"/><path d="m192.831 156.379h2.125v2.125h-2.125z"/><path d="m193.753 150.125h2.125v2.124h-2.125z"/><path d="m193.349 153.204h2.125v2.125h-2.125z"/><path d="m191.39 163.077h2.125v2.125h-2.125z"/><path d="m194.7 100.094h2.125v2.124h-2.125z"/><path d="m194.7 102.828h2.125v2.125h-2.125z"/><path d="m194.7 105.563h2.125v2.123h-2.125z"/><path d="m194.7 97.359h2.125v2.124h-2.125z"/><path d="m194.7 94.625h2.125v2.123h-2.125z"/><path d="m194.7 108.297h2.125v2.124h-2.125z"/><path d="m194.7 91.891h2.125v2.123h-2.125z"/><path d="m194.7 121.971h2.125v2.125h-2.125z"/><path d="m194.698 127.443h2.125v2.123h-2.125z"/><path d="m194.7 111.031h2.125v2.125h-2.125z"/><path d="m194.7 119.236h2.125v2.124h-2.125z"/><path d="m194.7 113.767h2.125v2.124h-2.125z"/><path d="m194.7 116.501h2.125v2.125h-2.125z"/><path d="m194.7 124.705h2.125v2.125h-2.125z"/><path d="m191.813 100.094h2.123v2.124h-2.123z"/><path d="m191.813 116.501h2.123v2.125h-2.123z"/><path d="m191.813 113.767h2.123v2.124h-2.123z"/><path d="m191.813 111.031h2.123v2.125h-2.123z"/><path d="m191.813 102.828h2.123v2.125h-2.123z"/><path d="m191.813 105.563h2.123v2.123h-2.123z"/><path d="m191.813 108.297h2.123v2.124h-2.123z"/><path d="m191.798 130.188h2.123v2.124h-2.123z"/><path d="m191.813 119.236h2.123v2.124h-2.123z"/><path d="m191.772 132.944h2.123v2.124h-2.123z"/><path d="m191.81 127.444h2.123v2.124h-2.123z"/><path d="m191.813 121.971h2.123v2.125h-2.123z"/><path d="m191.813 124.705h2.123v2.125h-2.123z"/><path d="m175.257 204.171h2.125v0.838h-2.125z"/><path d="m180.927 191.135h2.125v2.124h-2.125z"/><path d="m178.846 195.643h2.125v2.125h-2.125z"/><path d="m182.926 186.698h2.125v2.123h-2.125z"/><path d="m186.479 178.2h2.125v2.124h-2.125z"/><path d="m184.788 182.376h2.125v2.124h-2.125z"/><path d="m176.769 200.148h2.125v2.125h-2.125z"/><path d="m191.813 89.155h2.123v2.124h-2.123z"/><path d="m191.813 97.359h2.123v2.124h-2.123z"/><path d="m191.813 91.891h2.123v2.123h-2.123z"/><path d="m191.813 94.625h2.123v2.123h-2.123z"/><path d="m191.813 83.686h2.123v2.124h-2.123z"/><path d="m191.813 86.421h2.123v2.124h-2.123z"/><path d="m187.985 174.182h2.125v2.124h-2.125z"/><path d="m194.687 162.73h2.123v2.125h-2.123z"/><path d="m197.59 100.094h2.124v2.124h-2.124z"/><path d="m197.59 102.828h2.124v2.125h-2.124z"/><path d="m197.59 97.359h2.124v2.124h-2.124z"/><path d="m197.59 105.563h2.124v2.123h-2.124z"/><path d="m197.59 91.891h2.124v2.123h-2.124z"/><path d="m197.59 124.705h2.124v2.125h-2.124z"/><path d="m197.59 89.155h2.124v2.124h-2.124z"/><path d="m197.59 108.297h2.124v2.124h-2.124z"/><path d="m197.59 119.236h2.124v2.124h-2.124z"/><path d="m197.59 121.971h2.124v2.125h-2.124z"/><path d="m197.59 116.501h2.124v2.125h-2.124z"/><path d="m197.59 111.031h2.124v2.125h-2.124z"/><path d="m197.59 113.767h2.124v2.124h-2.124z"/><path d="m197.59 94.625h2.124v2.123h-2.124z"/></g><g transform="translate(174.4834,98.1904)"><path d="m0 0 0.865-0.831h1.258v2.124h-2.123z" fill="#62f2ff"/></g><g transform="translate(174.4785,128.168)"><path d="M 0,0 V -0.723 H 0.705 C 0.47,-0.482 0.234,-0.236 0,0" fill="#62f2ff"/></g><path d="m174.483 121.971h2.123v2.125h-2.123z" fill="#62f2ff"/><g transform="translate(174.4824,126.8311)"><path d="m0 0v-2.124h2.122v1.28c-0.273 0.288-0.548 0.562-0.82 0.844z" fill="#62f2ff"/></g><g fill="#62f2ff"><path d="m174.483 119.236h2.123v2.124h-2.123z"/><path d="m174.483 116.501h2.123v2.125h-2.123z"/><path d="m197.59 80.951h2.124v2.124h-2.124z"/><path d="m197.59 78.216h2.124v2.126h-2.124z"/><path d="m197.59 86.421h2.124v2.124h-2.124z"/><path d="m197.59 83.686h2.124v2.124h-2.124z"/></g><g transform="translate(176.6064,96.1523)"><path d="m0 0v0.596h-0.621z" fill="#62f2ff"/></g><g transform="translate(177.3701,95.4189)"><path d="m0 0 0.827-0.794h1.297v2.123h-2.124z" fill="#62f2ff"/></g><g transform="translate(179.4941,93.3809)"><path d="m0 0v0.633h-0.661z" fill="#62f2ff"/></g><g fill="#62f2ff"><path d="m197.587 127.441h2.124v2.125h-2.124z"/><path d="m188.979 181.265h2.124v2.124h-2.124z"/><path d="m190.421 177.303h2.123v2.124h-2.123z"/><path d="m193.847 166.179h2.124v2.124h-2.124z"/><path d="m191.717 173.464h2.124v2.124h-2.124z"/><path d="m185.758 189.48h2.124v2.124h-2.124z"/><path d="m192.859 169.756h2.124v2.123h-2.124z"/><path d="m187.413 185.335h2.124v2.123h-2.124z"/><path d="m194.7 80.951h2.125v2.124h-2.125z"/><path d="m194.7 86.421h2.125v2.124h-2.125z"/><path d="m194.7 83.686h2.125v2.124h-2.125z"/><path d="m184.065 193.657h2.123v2.125h-2.123z"/><path d="m182.409 197.803h2.123v2.125h-2.123z"/><path d="m181.228 201.545h2.123v0.838h-2.123z"/><path d="m197.472 138.479h2.123v2.124h-2.123z"/><path d="m194.7 89.155h2.125v2.124h-2.125z"/><path d="m197.53 135.695h2.123v2.124h-2.123z"/><path d="m197.237 144.148h2.123v2.124h-2.123z"/><path d="m197.377 141.293h2.124v2.125h-2.124z"/><path d="m197.563 132.932h2.124v2.124h-2.124z"/><path d="m197.581 130.183h2.123v2.124h-2.123z"/><path d="m195.385 159.4h2.124v2.124h-2.124z"/><path d="m174.483 113.767h2.123v2.124h-2.123z"/><path d="m195.956 156.178h2.123v2.125h-2.123z"/><path d="m196.769 150.017h2.124v2.124h-2.124z"/><path d="m196.413 153.055h2.123v2.125h-2.123z"/><path d="m197.038 147.052h2.124v2.124h-2.124z"/></g></g><flowRoot fill="black" font-family="sans-serif" font-size="40px" letter-spacing="0px" word-spacing="0px" style="line-height:1.25" xml:space="preserve"><flowRegion><rect x="110.32836" y="311.64178" width="171.22388" height="45.134327"/></flowRegion><flowPara/></flowRoot><g fill-rule="evenodd" opacity="0"><path d="m175.3728 52.280067v-11.799569l26.28755 24.161781v9.045512z" points="175.3728,40.480498 201.66035,64.642279 201.66035,73.687791 175.3728,52.280067 " fill="#353564"/><path transform="matrix(.75000002 0 0 -.75000002 0 288.00001)" d="m268.88086 297.81055-18.53516 17.03711c0.50462 0.018 1.00554 0.052 1.48438 0.14453 0.8064-0.0211-0.63944 0.03 1.25976-0.1836 1.12491-0.12653 2.39296-0.35627 3.57227-0.22656 0.0289 3e-3 -0.0811 0.0896-0.0391 0.0781 0.92862-0.0411-0.20359 0.0209 2.11718-0.37696 0.034-6e-3 -0.11838 0.0621-0.084 0.0605 0.1288-6e-3 0.25112-0.0552 0.37891-0.0723 3.06679-0.41017 2.7271-0.49261 3.60351-0.44531 0.14541-0.0351 0.29055-0.0719 0.43945-0.084 0.88764-0.072 1.82536-0.10184 2.5879-0.11914 2.08523-0.685 1.97411-0.72633 4.86132-0.89844 0.36207-0.0216 0.72357 0.0297 1.08594 0.0449 0.28017 0.0164 0.77461 0.10509 1.08399 0.0684 1.4193-0.16851 2.82722-0.56084 4.26562-0.48047h0.23047l7.41608-8.35731zm-2.41602 15.77929c-0.13862 0.0123-0.10667 0.0118-0.20507 0.0195 0.73739-0.0115 1.02059-7e-3 0.20507-0.0195zm-4.40429 0.375c-0.0655 0.011-0.13174 0.0187-0.19727 0.0293-0.0412 7e-3 0.0842-3e-3 0.125-0.0117 0.0242-5e-3 0.0482-0.0121 0.0723-0.0176zm-12.02149 9.51758c2.3e-4 0.0618-1.9e-4 0.12372 0 0.18555 0.0601 0.0982 0.0493 0.0106 0-0.18555zm-13.7539 6.1543c-0.0695 0.0464-0.13951 0.0921-0.20899 0.13867 0.21922 0.22924 0.52065 0.51985 0.65625 0.68555 0.72384 0.50849 1.1564 0.83034 1.55274 1.09765 0.41214 1e-3 0.89659-0.0369 1.42968-0.0976-0.78113-0.50706-1.86245-1.11325-3.42968-1.82422zm9.57031 0.20117c-0.96527 0.31392-2.05587 0.68697-3.41797 1.21484 1.80291-0.26696 1.73284-0.24219 3.41797-1.21484zm-10.8125 0.64063c-0.0338 0.0229-0.0678 0.0454-0.10156 0.0684 0.511 0.29089 1.06694 0.51404 1.61523 0.71289-0.18563-0.0909-0.33264-0.2018-0.44531-0.33008-0.36093-0.14317-0.71994-0.2909-1.06836-0.45117zm1.06836 0.45117c0.45923 0.18216 0.91009 0.37526 1.36133 0.56836 0.10545 0.0143 0.22876 0.0189 0.3457 0.0273-0.6407-0.23769-1.23277-0.4719-1.77539-0.69336 0.0228 0.0324 0.0417 0.0673 0.0684 0.0977zm1.36133 0.56836c-0.33192-0.045-0.62122-0.11283-0.84571-0.21289 0.65598 0.23502 1.27826 0.43484 1.67188 0.58007-0.2653-0.1364-0.54814-0.2482-0.82617-0.36718zm2.89257 0.40039c-0.2507 0.10658-0.48794 0.20346-0.75 0.31836 0.39338 0.12191 0.87938 0.23665 1.56446 0.37109 0.0462 9e-3 0.0941 3e-3 0.14062 0.01-0.26529-0.19756-0.58071-0.43298-0.95508-0.69922zm-1.48242 0.0273c0.1727 0.0664 0.3738 0.15756 0.55274 0.22852-0.20254-0.0699-0.38665-0.14575-0.55274-0.22852zm0.71875 0.29688c-0.34591 0.15174-0.77274 0.36798-1.14062 0.53711l13.53515 7.99023 6.76563-7.62305c-0.95744 0.0777-1.30668 0.10504-2.4961 0.0742 0.0684 0.10244-0.65489 0.0863-0.92578 0.125-0.50037 0.0715-1.00221 0.12213-1.5039 0.1836-2.01256 0.12758-4.01978-0.0483-6.03321-0.0293-1.13316 0.0253-2.26712 0.0146-3.40039 0.0117-1.53074 0.0258-2.11757-0.21891-2.83398-0.72266-0.17128 0.01-0.27098 0.0162-0.55664 0.0352-0.50236-0.22465-0.94896-0.3972-1.41016-0.58203z" fill="#afafde"/><path d="m201.66035 73.687791 11.79643-4.113021v-9.574644l-11.79643 4.642153z" points="213.45678,69.57477 213.45678,60.000126 201.66035,64.642279 201.66035,73.687791 " fill="#e9e9ff"/><path d="m175.3728 52.280067 13.6248-7.125766 24.45918 24.420469-11.79643 4.113021z" points="188.9976,45.154301 213.45678,69.57477 201.66035,73.687791 175.3728,52.280067 " fill="#4d4d9f"/><path transform="matrix(.75000002 0 0 -.75000002 0 288.00001)" d="m284.60938 291.23438-22.09961 22.06445c0.30992 0.59348 0.55703 1.28897 0.72656 2.07812 6.82389 1.3168 6.59799 8.52004-0.68164 9.44336-1.99466 3.96385-6.63994 3.68361-8.25391-0.84961-0.57374-0.29325-1.05593-0.6416-1.44922-1.02929l-0.85547 0.85351v16.95508l32.61329-36.75z" fill="#d7d7ff"/><path transform="matrix(.75000002 0 0 -.75000002 0 288.00001)" d="m251.99609 340.01758c-0.0691 0.12093-0.19198 0.36967-0.29101 0.56054l0.29101 0.17188z" fill="#8686bf"/></g><g fill-rule="evenodd" opacity="0"><path d="m125.73135 199.34329v-5.43466l29.07417-8.94228v4.46091z" points="125.73135,193.90863 154.80552,184.96635 154.80552,189.42726 125.73135,199.34329 " fill="#353564"/><path d="m154.80552 189.42726 14.88564 4.36815v-4.88986l-14.88564-3.9392z" points="169.69116,193.79541 169.69116,188.90555 154.80552,184.96635 154.80552,189.42726 " fill="#e9e9ff"/><path d="m125.73135 199.34329 15.04477 6.62227 28.91504-12.17015-14.88564-4.36815z" points="140.77612,205.96556 169.69116,193.79541 154.80552,189.42726 125.73135,199.34329 " fill="#4d4d9f"/><path d="m125.73135 193.90863 15.04477 5.97197 28.91504-10.97505-14.88564-3.9392z" points="140.77612,199.8806 169.69116,188.90555 154.80552,184.96635 125.73135,193.90863 " fill="#afafde"/><path d="m140.77612 205.96556v-6.08496l28.91504-10.97505v4.88986z" points="140.77612,199.8806 169.69116,188.90555 169.69116,193.79541 140.77612,205.96556 " fill="#d7d7ff"/><path d="m125.73135 199.34329 15.04477 6.62227v-6.08496l-15.04477-5.97197z" points="140.77612,205.96556 140.77612,199.8806 125.73135,193.90863 125.73135,199.34329 " fill="#8686bf"/></g><g stroke-width=".75"><rect transform="scale(1,-1)" x="339.08667" y="-274.49042" width="159.53682" height="161.55972" opacity="0"/><rect transform="scale(1,-1)" x="339.08667" y="-274.49042" width="159.53682" height="161.55972" opacity="0"/><rect transform="scale(1,-1)" x="330.17578" y="-286.74289" width="15.12127" height="51.346844" opacity="0"/><rect transform="scale(1,-1)" x="201.23763" y="-230.9406" width="16.336634" height="116.95545" opacity="0"/><rect transform="scale(1,-1)" x="55.5401" y="-248.93451" width="162.03418" height="157.96916" opacity="0"/><rect transform="scale(1,-1)" x="55.5401" y="-248.93451" width="162.03418" height="157.96916" opacity="0"/><rect transform="scale(1,-1)" x="55.5401" y="-248.93451" width="162.03418" height="157.96916" opacity="0"/><rect transform="scale(1,-1)" x="55.208141" y="-249.25679" width="154.33881" height="161.25337" opacity="0"/><rect transform="scale(1,-1)" x="55.208141" y="-249.25679" width="154.33881" height="161.25337" opacity="0"/><rect transform="scale(1,-1)" x="46.341465" y="-262.8049" width="181.09756" height="184.14635" opacity="0"/></g></g>
</svg>
